<?xml version="1.0" encoding="UTF-8" standalone="no"?>
<!-- Created with Inkscape (http://www.inkscape.org/) -->

<svg
   width="209.23157mm"
   height="40.08643mm"
   viewBox="0 0 209.23157 40.086429"
   version="1.1"
   id="svg1"
   xml:space="preserve"
   inkscape:version="1.4.4 (dcaf3e7, 2026-05-05)"
   sodipodi:docname="thinknao_full.svg"
   xmlns:inkscape="http://www.inkscape.org/namespaces/inkscape"
   xmlns:sodipodi="http://sodipodi.sourceforge.net/DTD/sodipodi-0.dtd"
   xmlns="http://www.w3.org/2000/svg"
   xmlns:svg="http://www.w3.org/2000/svg"><sodipodi:namedview
     id="namedview1"
     pagecolor="#ffffff"
     bordercolor="#000000"
     borderopacity="0.25"
     inkscape:showpageshadow="2"
     inkscape:pageopacity="0.0"
     inkscape:pagecheckerboard="0"
     inkscape:deskcolor="#d1d1d1"
     inkscape:document-units="mm"
     inkscape:zoom="0.68862935"
     inkscape:cx="254.128"
     inkscape:cy="106.73376"
     inkscape:window-width="1920"
     inkscape:window-height="991"
     inkscape:window-x="-9"
     inkscape:window-y="-9"
     inkscape:window-maximized="1"
     inkscape:current-layer="layer1"><inkscape:page
       x="0"
       y="0"
       width="209.23158"
       height="40.08643"
       id="page7"
       margin="0"
       bleed="0" /></sodipodi:namedview><defs
     id="defs1" /><g
     inkscape:label="Layer 1"
     inkscape:groupmode="layer"
     id="layer1"><path
       style="fill:#030e1e;fill-opacity:1;stroke:#0f172a;stroke-width:0.288912;stroke-opacity:1"
       d="M 109.17713,9.6653843 V 38.410809 h 5.55026 v -20.04724 l 17.47922,20.04724 h 5.38458 V 35.511417 L 114.72739,9.6653843 Z"
       id="path1" /><path
       style="fill:#030e1e;fill-opacity:1;stroke:#0f172a;stroke-width:0.288912;stroke-opacity:1"
       d="m 132.08236,9.7482253 h 5.46741 V 31.907882 l -5.55026,-5.798788 z"
       id="path2" /><path
       style="fill:#030e1e;fill-opacity:1;stroke:#0f172a;stroke-width:0.288912;stroke-opacity:1"
       d="m 144.13554,38.203709 h 6.13015 l 10.14789,-21.331259 10.18929,21.414099 6.25442,0.04142 -13.66858,-28.6211657 -5.426,0.08283 z"
       id="path3" /><path
       style="fill:#030e1e;fill-opacity:1;stroke:#0f172a;stroke-width:0.288912;stroke-opacity:1"
       d="m 153.89842,2.1037335 h 3.30958 l 3.29495,3.1045568 3.25099,-3.1924224 3.58782,0.1171531 -4.56896,4.8325695 h -4.43718 z"
       id="path4" /><path
       id="path5"
       style="fill:#030e1e;fill-opacity:1;stroke:#0f172a;stroke-width:0.305983;stroke-opacity:1"
       d="m 192.63825,9.3909619 a 14.695533,14.695533 0 0 0 -14.69558,14.6955701 14.695533,14.695533 0 0 0 14.69558,14.69557 14.695533,14.695533 0 0 0 14.69556,-14.69557 14.695533,14.695533 0 0 0 -14.69556,-14.6955701 z m 0,4.8658421 a 10.078172,9.9539135 0 0 1 10.07796,9.954071 10.078172,9.9539135 0 0 1 -10.07796,9.954071 10.078172,9.9539135 0 0 1 -10.07797,-9.954071 10.078172,9.9539135 0 0 1 10.07797,-9.954071 z" /><circle
       style="fill:#d4a017;fill-opacity:1;stroke:#d4a017;stroke-width:0.312595;stroke-opacity:1"
       id="path7"
       cx="192.63815"
       cy="24.286613"
       r="3.6745334" /><text
       xml:space="preserve"
       style="font-size:39.5612px;font-family:sans-serif;-inkscape-font-specification:sans-serif;writing-mode:lr-tb;direction:ltr;fill:#d4a017;fill-opacity:1;stroke:#d4a017;stroke-width:1.57312;stroke-dasharray:none;stroke-opacity:1"
       x="1.1504321"
       y="37.094955"
       id="text7"><tspan
         sodipodi:role="line"
         id="tspan7"
         style="font-style:normal;font-variant:normal;font-weight:normal;font-stretch:normal;font-size:39.5612px;font-family:Poppins;-inkscape-font-specification:Poppins;fill:#d4a017;fill-opacity:1;stroke:#d4a017;stroke-width:1.57312;stroke-dasharray:none;stroke-opacity:1"
         x="1.1504321"
         y="37.094955">Think</tspan></text></g></svg>
